<?xml version="1.0" standalone="no"?><!DOCTYPE svg PUBLIC "-//W3C//DTD SVG 1.1//EN" "http://www.w3.org/Graphics/SVG/1.1/DTD/svg11.dtd"><svg t="1781505018320" class="icon" viewBox="0 0 1024 1024" version="1.1" xmlns="http://www.w3.org/2000/svg" p-id="6741" xmlns:xlink="http://www.w3.org/1999/xlink" width="200" height="200"><path d="M0 0h1024v1024H0z" fill="#2c2c2c" fill-opacity=".01" p-id="6742"></path><path d="M454.376727 64a44.823273 44.823273 0 0 1 0 89.6h-256a44.823273 44.823273 0 0 0-44.776727 44.823273v614.4c0 24.715636 20.014545 44.776727 44.823273 44.776727h614.4c24.715636 0 44.776727-20.014545 44.776727-44.823273v-256a44.776727 44.776727 0 1 1 89.6 0v256a134.423273 134.423273 0 0 1-134.423273 134.423273h-614.4a134.423273 134.423273 0 0 1-134.376727-134.423273v-614.4a134.376727 134.376727 0 0 1 134.423273-134.376727z m435.432728 5.073455a151.179636 151.179636 0 0 1 67.258181 253.905454l-363.333818 363.333818c-15.36 15.36-33.838545 27.182545-54.225454 34.769455l-92.811637 34.490182a105.844364 105.844364 0 0 1-136.052363-136.052364l34.490181-92.811636c7.586909-20.386909 19.456-38.865455 34.769455-54.225455l363.426909-363.333818a151.179636 151.179636 0 0 1 146.478546-40.075636zM814.545455 180.410182l-363.333819 363.333818c-5.12 5.12-9.076364 11.310545-11.589818 18.106182l-34.490182 92.811636a5.026909 5.026909 0 0 0 6.423273 6.516364l92.904727-34.536727c6.749091-2.513455 12.893091-6.516364 18.013091-11.636364l363.333818-363.287273a50.408727 50.408727 0 1 0-71.214545-71.307636z" fill="#2c2c2c" p-id="6743"></path></svg>